<?xml version="1.0" encoding="UTF-8" standalone="no"?>
<svg
   height="1024"
   version="1.1"
   width="1024"
   id="svg266"
   sodipodi:docname="favicon.svg"
   inkscape:version="1.2.2 (b0a8486541, 2022-12-01)"
   xmlns:inkscape="http://www.inkscape.org/namespaces/inkscape"
   xmlns:sodipodi="http://sodipodi.sourceforge.net/DTD/sodipodi-0.dtd"
   xmlns="http://www.w3.org/2000/svg"
   xmlns:svg="http://www.w3.org/2000/svg">
  <sodipodi:namedview
     id="namedview268"
     pagecolor="#ffffff"
     bordercolor="#000000"
     borderopacity="0.25"
     inkscape:showpageshadow="2"
     inkscape:pageopacity="0.0"
     inkscape:pagecheckerboard="0"
     inkscape:deskcolor="#d1d1d1"
     showgrid="false"
     inkscape:zoom="0.80957031"
     inkscape:cx="271.7491"
     inkscape:cy="512.61761"
     inkscape:window-width="2560"
     inkscape:window-height="1009"
     inkscape:window-x="2552"
     inkscape:window-y="-8"
     inkscape:window-maximized="1"
     inkscape:current-layer="svg266" />
  <defs
     id="defs2" />
  <path
     d="M 421,729 Z"
     fill="#3b5998"
     id="path4" />
  <path
     d="M 399,729 Z"
     fill="#3b5998"
     id="path6" />
  <path
     d="M 392,729 Z"
     fill="#3b5998"
     id="path8" />
  <path
     d="M 387,729 L 389,729 Z"
     fill="#3b5998"
     id="path10" />
  <path
     d="M 385,729 Z"
     fill="#3b5998"
     id="path12" />
  <path
     d="M 381,729 L 383,729 Z"
     fill="#3b5998"
     id="path14" />
  <path
     d="M 378,729 L 379,729 Z"
     fill="#3b5998"
     id="path16" />
  <path
     d="M 367,728 Z"
     fill="#3b5998"
     id="path18" />
  <path
     d="M 358,727 Z"
     fill="#3b5998"
     id="path20" />
  <path
     d="M 344,724 Z"
     fill="#3b5998"
     id="path22" />
  <path
     d="M 328,719 Z"
     fill="#3b5998"
     id="path24" />
  <path
     d="M 626,709 Z"
     fill="#3b5998"
     id="path26" />
  <path
     d="M 628,702 Z"
     fill="#3b5998"
     id="path28" />
  <path
     d="M 628,699 Z"
     fill="#3b5998"
     id="path30" />
  <path
     d="M 629,695 Z"
     fill="#3b5998"
     id="path32" />
  <path
     d="M 630,690 Z"
     fill="#3b5998"
     id="path34" />
  <path
     d="M 631,683 Z"
     fill="#3b5998"
     id="path36" />
  <path
     d="M 635,662 Z"
     fill="#3b5998"
     id="path38" />
  <path
     d="M 268,661 Z"
     fill="#3b5998"
     id="path40" />
  <path
     d="M 635,660 Z"
     fill="#3b5998"
     id="path42" />
  <path
     d="M 634,657 Z"
     fill="#3b5998"
     id="path44" />
  <path
     d="M 385,644 Z"
     fill="#3b5998"
     id="path46" />
  <path
     d="M 381,644 L 382,644 Z"
     fill="#3b5998"
     id="path48" />
  <path
     d="M 374,643 Z"
     fill="#3b5998"
     id="path50" />
  <path
     d="M 369,642 Z"
     fill="#3b5998"
     id="path52" />
  <path
     d="M 261,632 L 261,633 Z"
     fill="#3b5998"
     id="path54" />
  <path
     d="M 348,620 Z"
     fill="#3b5998"
     id="path56" />
  <path
     d="M 262,592 Z"
     fill="#3b5998"
     id="path58" />
  <path
     d="M 348,585 Z"
     fill="#3b5998"
     id="path60" />
  <path
     d="M 264,580 Z"
     fill="#3b5998"
     id="path62" />
  <path
     d="M 350,578 Z"
     fill="#3b5998"
     id="path64" />
  <path
     d="M 702,575 L 703,575 Z"
     fill="#3b5998"
     id="path66" />
  <path
     d="M 698,575 L 700,575 Z"
     fill="#3b5998"
     id="path68" />
  <path
     d="M 696,575 Z"
     fill="#3b5998"
     id="path70" />
  <path
     d="M 691,575 L 692,575 Z"
     fill="#3b5998"
     id="path72" />
  <path
     d="M 678,575 Z"
     fill="#3b5998"
     id="path74" />
  <path
     d="M 351,575 Z"
     fill="#3b5998"
     id="path76" />
  <path
     d="M 714,567 Z"
     fill="#3b5998"
     id="path78" />
  <path
     d="M 269,562 Z"
     fill="#3b5998"
     id="path80" />
  <path
     d="M 717,560 Z"
     fill="#3b5998"
     id="path82" />
  <path
     d="M 659,556 L 659,557 Z"
     fill="#3b5998"
     id="path84" />
  <path
     d="M 718,554 Z"
     fill="#3b5998"
     id="path86" />
  <path
     d="M 272,554 Z"
     fill="#3b5998"
     id="path88" />
  <path
     d="M 660,552 Z"
     fill="#3b5998"
     id="path90" />
  <path
     d="M 719,547 Z"
     fill="#3b5998"
     id="path92" />
  <path
     d="M 663,532 L 663,535 Z"
     fill="#3b5998"
     id="path94" />
  <path
     d="M 722,530 L 722,532 Z"
     fill="#3b5998"
     id="path96" />
  <path
     d="M 723,526 Z"
     fill="#3b5998"
     id="path98" />
  <path
     d="M 577,525 Z"
     fill="#3b5998"
     id="path100" />
  <path
     d="M 665,522 Z"
     fill="#3b5998"
     id="path102" />
  <path
     d="M 724,521 Z"
     fill="#3b5998"
     id="path104" />
  <path
     d="M 779,505 L 779,506 Z"
     fill="#3b5998"
     id="path106" />
  <path
     d="M 619,500 L 619,501 Z"
     fill="#3b5998"
     id="path108" />
  <path
     d="M 315,500 Z"
     fill="#3b5998"
     id="path110" />
  <path
     d="M 780,499 L 780,500 Z"
     fill="#3b5998"
     id="path112" />
  <path
     d="M 781,495 Z"
     fill="#3b5998"
     id="path114" />
  <path
     d="M 621,490 Z"
     fill="#3b5998"
     id="path116" />
  <path
     d="M 584,490 L 584,492 Z"
     fill="#3b5998"
     id="path118" />
  <path
     d="M 585,488 Z"
     fill="#3b5998"
     id="path120" />
  <path
     d="M 783,484 Z"
     fill="#3b5998"
     id="path122" />
  <path
     d="M 622,484 Z"
     fill="#3b5998"
     id="path124" />
  <path
     d="M 784,479 Z"
     fill="#3b5998"
     id="path126" />
  <path
     d="M 623,479 L 623,480 Z"
     fill="#3b5998"
     id="path128" />
  <path
     d="M 299,473 Z"
     fill="#3b5998"
     id="path130" />
  <path
     d="M 768,466 L 774,466 Z"
     fill="#3b5998"
     id="path132" />
  <path
     d="M 765,466 Z"
     fill="#3b5998"
     id="path134" />
  <path
     d="M 761,466 L 762,466 Z"
     fill="#3b5998"
     id="path136" />
  <path
     d="M 755,466 L 758,466 Z"
     fill="#3b5998"
     id="path138" />
  <path
     d="M 747,466 L 753,466 Z"
     fill="#3b5998"
     id="path140" />
  <path
     d="M 741,466 L 742,466 Z"
     fill="#3b5998"
     id="path142" />
  <path
     d="M 739,466 Z"
     fill="#3b5998"
     id="path144" />
  <path
     d="M 734,466 Z"
     fill="#3b5998"
     id="path146" />
  <path
     d="M 668,466 L 673,466 Z"
     fill="#3b5998"
     id="path148" />
  <path
     d="M 661,466 L 666,466 Z"
     fill="#3b5998"
     id="path150" />
  <path
     d="M 658,466 L 659,466 Z"
     fill="#3b5998"
     id="path152" />
  <path
     d="M 652,466 L 656,466 Z"
     fill="#3b5998"
     id="path154" />
  <path
     d="M 648,466 L 650,466 Z"
     fill="#3b5998"
     id="path156" />
  <path
     d="M 644,466 L 646,466 Z"
     fill="#3b5998"
     id="path158" />
  <path
     d="M 642,466 Z"
     fill="#3b5998"
     id="path160" />
  <path
     d="M 640,466 Z"
     fill="#3b5998"
     id="path162" />
  <path
     d="M 675,465 L 675,466 Z"
     fill="#3b5998"
     id="path164" />
  <path
     d="M 406,465 L 407,465 Z"
     fill="#3b5998"
     id="path166" />
  <path
     d="M 734,464 Z"
     fill="#3b5998"
     id="path168" />
  <path
     d="M 404,464 Z"
     fill="#3b5998"
     id="path170" />
  <path
     d="M 402,464 Z"
     fill="#3b5998"
     id="path172" />
  <path
     d="M 676,459 Z"
     fill="#3b5998"
     id="path174" />
  <path
     d="M 677,454 Z"
     fill="#3b5998"
     id="path176" />
  <path
     d="M 736,453 Z"
     fill="#3b5998"
     id="path178" />
  <path
     d="M 678,448 Z"
     fill="#3b5998"
     id="path180" />
  <path
     d="M 737,447 L 737,448 Z"
     fill="#3b5998"
     id="path182" />
  <path
     d="M 371,439 Z"
     fill="#3b5998"
     id="path184" />
  <path
     d="M 286,436 L 286,438 Z"
     fill="#3b5998"
     id="path186" />
  <path
     d="M 739,435 Z"
     fill="#3b5998"
     id="path188" />
  <path
     d="M 680,434 Z"
     fill="#3b5998"
     id="path190" />
  <path
     d="M 681,432 Z"
     fill="#3b5998"
     id="path192" />
  <path
     d="M 740,429 L 740,431 Z"
     fill="#3b5998"
     id="path194" />
  <path
     d="M 285,429 Z"
     fill="#3b5998"
     id="path196" />
  <path
     d="M 682,426 Z"
     fill="#3b5998"
     id="path198" />
  <path
     d="M 740,421 L 740,422 Z"
     fill="#3b5998"
     id="path200" />
  <path
     d="M 712,415 L 711,416 L 694,416 L 693,417 L 692,417 L 691,418 L 690,418 L 686,422 L 686,423 L 685,424 L 685,425 L 684,426 L 684,428 L 683,429 L 683,433 L 682,434 L 682,440 L 681,441 L 681,445 L 680,446 L 680,451 L 679,452 L 679,455 L 678,456 L 678,461 L 677,462 L 677,467 L 676,468 L 637,468 L 636,469 L 634,469 L 633,470 L 632,470 L 626,476 L 626,478 L 625,479 L 625,482 L 624,483 L 624,488 L 623,489 L 623,491 L 622,492 L 623,493 L 622,494 L 622,498 L 621,499 L 621,502 L 620,503 L 621,504 L 620,505 L 620,513 L 621,514 L 621,515 L 624,518 L 667,518 L 668,519 L 668,520 L 667,521 L 667,525 L 666,526 L 666,531 L 665,532 L 665,536 L 664,537 L 665,538 L 664,539 L 664,542 L 663,543 L 663,547 L 662,548 L 661,547 L 661,546 L 661,547 L 662,548 L 662,553 L 661,554 L 661,559 L 660,560 L 660,566 L 661,567 L 661,568 L 665,572 L 667,572 L 668,573 L 703,573 L 704,572 L 706,572 L 707,571 L 708,571 L 712,567 L 712,566 L 713,565 L 713,564 L 714,563 L 714,562 L 715,561 L 715,557 L 716,556 L 716,550 L 717,549 L 717,546 L 718,545 L 718,541 L 719,540 L 718,539 L 719,538 L 719,533 L 720,532 L 720,528 L 721,527 L 721,522 L 722,521 L 722,519 L 723,518 L 768,518 L 771,515 L 772,515 L 774,513 L 774,512 L 775,511 L 775,510 L 776,509 L 776,507 L 777,506 L 777,504 L 778,503 L 777,502 L 778,501 L 778,497 L 779,496 L 779,491 L 780,490 L 780,487 L 781,486 L 781,481 L 782,480 L 782,475 L 781,474 L 781,473 L 780,472 L 780,471 L 779,470 L 778,470 L 776,468 L 732,468 L 731,467 L 732,466 L 732,461 L 733,460 L 733,454 L 734,453 L 734,451 L 735,450 L 736,451 L 734,449 L 735,448 L 735,443 L 736,442 L 736,437 L 737,436 L 737,434 L 738,433 L 737,432 L 738,431 L 738,428 L 739,427 L 738,426 L 739,425 L 738,424 L 738,421 L 737,420 L 737,419 L 735,417 L 734,417 L 733,416 L 714,416 L 713,415 Z"
     fill="#3b5998"
     id="path202"
     style="fill:#ffffff;fill-opacity:1" />
  <path
     d="M 369,414 Z"
     fill="#3b5998"
     id="path204" />
  <path
     d="M 370,408 Z"
     fill="#3b5998"
     id="path206" />
  <path
     d="M 285,405 Z"
     fill="#3b5998"
     id="path208" />
  <path
     d="M 285,400 L 285,401 Z"
     fill="#3b5998"
     id="path210" />
  <path
     d="M 287,387 Z"
     fill="#3b5998"
     id="path212" />
  <path
     d="M 396,374 Z"
     fill="#3b5998"
     id="path214" />
  <path
     d="M 408,371 Z"
     fill="#3b5998"
     id="path216" />
  <path
     d="M 405,371 L 406,371 Z"
     fill="#3b5998"
     id="path218" />
  <path
     d="M 642,370 L 657,370 Z"
     fill="#3b5998"
     id="path220" />
  <path
     d="M 610,370 L 640,370 Z"
     fill="#3b5998"
     id="path222" />
  <path
     d="M 574,370 L 608,370 Z"
     fill="#3b5998"
     id="path224" />
  <path
     d="M 559,370 L 572,370 Z"
     fill="#3b5998"
     id="path226" />
  <path
     d="M 498,370 L 557,370 Z"
     fill="#3b5998"
     id="path228" />
  <path
     d="M 456,370 L 496,370 Z"
     fill="#3b5998"
     id="path230" />
  <path
     d="M 444,370 L 454,370 Z"
     fill="#3b5998"
     id="path232" />
  <path
     d="M 292,368 Z"
     fill="#3b5998"
     id="path234" />
  <path
     d="M 299,352 Z"
     fill="#3b5998"
     id="path236" />
  <path
     d="M 676,351 Z"
     fill="#3b5998"
     id="path238" />
  <path
     d="M 677,346 L 677,347 Z"
     fill="#3b5998"
     id="path240" />
  <path
     d="M 679,336 Z"
     fill="#3b5998"
     id="path242" />
  <path
     d="M 682,319 Z"
     fill="#3b5998"
     id="path244" />
  <path
     d="M 335,312 Z"
     fill="#3b5998"
     id="path246" />
  <path
     d="M 348,304 Z"
     fill="#3b5998"
     id="path248" />
  <path
     d="M 354,301 Z"
     fill="#3b5998"
     id="path250" />
  <path
     d="M 362,298 Z"
     fill="#3b5998"
     id="path252" />
  <path
     d="M 364,297 Z"
     fill="#3b5998"
     id="path254" />
  <path
     d="M 404,290 L 403,291 L 392,291 L 391,292 L 389,292 L 388,293 L 383,293 L 382,294 L 381,293 L 381,292 L 381,293 L 379,295 L 376,295 L 375,296 L 373,296 L 372,297 L 369,297 L 368,298 L 366,298 L 365,299 L 364,299 L 363,300 L 361,300 L 360,301 L 359,301 L 358,302 L 356,302 L 355,303 L 354,303 L 353,304 L 352,304 L 351,305 L 350,305 L 349,306 L 348,306 L 347,307 L 346,307 L 344,309 L 343,309 L 342,310 L 341,310 L 339,312 L 338,312 L 336,314 L 335,314 L 333,316 L 332,316 L 329,319 L 328,319 L 322,325 L 321,325 L 318,328 L 318,329 L 313,334 L 313,335 L 312,336 L 311,336 L 311,337 L 309,339 L 309,340 L 306,343 L 306,344 L 305,345 L 305,346 L 304,347 L 304,348 L 302,350 L 302,351 L 301,352 L 301,353 L 300,354 L 300,355 L 299,356 L 299,357 L 298,358 L 298,360 L 297,361 L 297,362 L 296,363 L 296,364 L 295,365 L 295,367 L 294,368 L 294,370 L 293,371 L 293,373 L 292,374 L 292,377 L 291,378 L 291,380 L 290,381 L 290,386 L 289,387 L 289,391 L 288,392 L 288,398 L 287,399 L 287,432 L 288,433 L 288,438 L 289,439 L 289,444 L 290,445 L 290,448 L 291,449 L 291,451 L 292,452 L 292,453 L 291,454 L 290,453 L 291,454 L 292,454 L 293,455 L 293,457 L 294,458 L 294,460 L 295,461 L 295,462 L 296,463 L 296,465 L 298,467 L 298,468 L 297,469 L 296,468 L 297,469 L 298,468 L 299,469 L 299,470 L 301,472 L 301,473 L 302,474 L 302,475 L 304,477 L 304,478 L 306,480 L 306,481 L 311,486 L 311,487 L 320,496 L 321,496 L 322,497 L 318,501 L 317,501 L 316,502 L 315,502 L 311,506 L 310,506 L 306,510 L 304,510 L 304,512 L 303,513 L 302,513 L 299,516 L 299,517 L 298,518 L 297,518 L 296,519 L 296,520 L 290,526 L 290,527 L 287,530 L 287,531 L 285,533 L 285,534 L 283,536 L 283,537 L 282,538 L 282,539 L 280,541 L 280,543 L 278,545 L 277,544 L 278,545 L 278,546 L 277,547 L 277,548 L 276,549 L 276,550 L 275,551 L 275,552 L 274,553 L 274,555 L 273,556 L 273,558 L 272,559 L 272,561 L 271,562 L 271,563 L 270,564 L 270,566 L 269,567 L 269,570 L 268,571 L 268,574 L 267,575 L 267,579 L 266,580 L 266,584 L 265,585 L 265,590 L 264,591 L 264,594 L 263,595 L 264,596 L 264,597 L 263,598 L 263,634 L 264,635 L 264,641 L 265,642 L 265,644 L 264,645 L 263,644 L 264,645 L 265,645 L 266,646 L 266,650 L 267,651 L 267,653 L 268,654 L 268,657 L 267,658 L 268,657 L 269,658 L 269,659 L 270,660 L 270,662 L 271,663 L 271,664 L 272,665 L 272,666 L 273,667 L 273,668 L 274,669 L 274,670 L 275,671 L 275,672 L 277,674 L 277,675 L 278,676 L 278,677 L 280,679 L 280,680 L 282,682 L 282,683 L 286,687 L 286,688 L 299,701 L 299,702 L 300,701 L 302,703 L 303,703 L 305,705 L 306,705 L 308,707 L 309,707 L 311,709 L 312,709 L 313,710 L 314,710 L 315,711 L 316,711 L 317,712 L 318,712 L 319,713 L 320,713 L 321,714 L 322,714 L 323,715 L 324,715 L 325,716 L 327,716 L 328,717 L 329,717 L 330,718 L 332,718 L 333,719 L 335,719 L 336,720 L 338,720 L 339,721 L 341,721 L 342,722 L 345,722 L 346,723 L 350,723 L 352,725 L 352,726 L 352,725 L 353,724 L 356,724 L 357,725 L 362,725 L 363,726 L 369,726 L 370,727 L 371,726 L 372,726 L 373,727 L 430,727 L 431,726 L 444,726 L 445,727 L 446,726 L 447,726 L 448,727 L 449,727 L 450,726 L 451,727 L 452,726 L 453,727 L 454,726 L 455,726 L 456,727 L 457,727 L 458,726 L 464,726 L 465,727 L 466,727 L 467,726 L 468,726 L 469,727 L 470,727 L 471,726 L 479,726 L 480,727 L 481,727 L 482,726 L 500,726 L 501,727 L 502,726 L 528,726 L 529,727 L 530,726 L 535,726 L 536,727 L 537,726 L 538,727 L 539,726 L 541,726 L 542,727 L 543,726 L 545,726 L 546,727 L 547,726 L 548,727 L 550,727 L 551,726 L 556,726 L 557,727 L 558,727 L 559,726 L 563,726 L 564,727 L 565,726 L 566,727 L 567,726 L 569,726 L 570,727 L 571,726 L 576,726 L 577,727 L 578,726 L 584,726 L 585,727 L 586,726 L 587,726 L 588,727 L 589,726 L 590,727 L 591,726 L 592,726 L 593,727 L 594,726 L 605,726 L 606,727 L 607,726 L 610,726 L 611,725 L 613,725 L 614,724 L 615,724 L 621,718 L 621,717 L 622,716 L 622,715 L 623,714 L 623,713 L 624,712 L 624,708 L 625,707 L 625,703 L 626,702 L 626,698 L 627,697 L 627,691 L 628,690 L 628,686 L 629,685 L 629,681 L 630,680 L 630,675 L 631,674 L 631,670 L 632,669 L 632,665 L 633,664 L 633,659 L 632,658 L 632,655 L 631,654 L 631,653 L 626,648 L 625,648 L 624,647 L 621,647 L 620,646 L 619,647 L 387,647 L 386,646 L 376,646 L 375,645 L 372,645 L 371,644 L 368,644 L 367,643 L 366,643 L 365,642 L 366,641 L 365,642 L 364,642 L 363,641 L 362,641 L 361,640 L 360,640 L 355,635 L 354,635 L 353,634 L 353,633 L 350,630 L 350,629 L 349,628 L 349,627 L 348,626 L 348,625 L 347,624 L 347,622 L 346,621 L 346,618 L 345,617 L 345,612 L 344,611 L 344,599 L 345,598 L 345,591 L 346,590 L 346,584 L 347,583 L 347,581 L 348,580 L 348,577 L 349,576 L 349,574 L 350,573 L 350,572 L 351,571 L 351,570 L 352,569 L 352,568 L 353,567 L 353,566 L 354,565 L 354,564 L 356,562 L 356,561 L 359,558 L 359,557 L 365,551 L 366,551 L 370,547 L 371,547 L 373,545 L 374,545 L 375,544 L 376,544 L 377,543 L 378,543 L 379,542 L 381,542 L 382,541 L 383,541 L 384,540 L 386,540 L 387,539 L 390,539 L 391,538 L 394,538 L 395,537 L 559,537 L 560,538 L 561,537 L 563,537 L 564,536 L 565,536 L 566,535 L 567,535 L 569,533 L 570,533 L 571,532 L 571,531 L 574,528 L 574,527 L 575,526 L 575,523 L 576,522 L 576,518 L 577,517 L 577,514 L 578,513 L 578,508 L 579,507 L 580,508 L 580,509 L 580,508 L 579,507 L 579,504 L 580,503 L 580,498 L 581,497 L 581,493 L 582,492 L 582,489 L 583,488 L 583,483 L 584,482 L 584,479 L 583,478 L 583,476 L 582,475 L 582,474 L 577,469 L 575,469 L 574,468 L 570,468 L 569,467 L 570,466 L 572,466 L 570,466 L 569,467 L 568,467 L 567,468 L 410,468 L 409,467 L 408,468 L 407,467 L 405,467 L 404,466 L 400,466 L 399,465 L 396,465 L 395,464 L 393,464 L 392,463 L 391,463 L 389,461 L 390,460 L 389,461 L 388,461 L 387,460 L 386,460 L 385,459 L 384,459 L 373,448 L 373,447 L 372,446 L 372,445 L 371,444 L 371,443 L 370,442 L 370,441 L 369,440 L 369,438 L 368,437 L 368,434 L 367,433 L 367,411 L 368,410 L 368,407 L 369,406 L 369,403 L 370,402 L 371,403 L 370,402 L 370,400 L 371,399 L 371,397 L 372,396 L 372,395 L 373,394 L 373,393 L 374,392 L 374,391 L 375,390 L 375,389 L 378,386 L 378,385 L 385,378 L 386,378 L 389,375 L 390,375 L 391,374 L 392,374 L 393,373 L 394,373 L 395,372 L 397,372 L 398,371 L 399,371 L 400,370 L 403,370 L 404,369 L 413,369 L 414,370 L 442,370 L 414,370 L 413,369 L 414,368 L 657,368 L 658,367 L 659,368 L 660,367 L 662,367 L 663,366 L 664,366 L 665,367 L 664,366 L 665,365 L 666,365 L 670,361 L 670,360 L 672,358 L 672,356 L 673,355 L 673,353 L 674,352 L 674,349 L 675,348 L 674,347 L 675,346 L 675,343 L 676,342 L 676,338 L 677,337 L 677,333 L 678,332 L 678,330 L 679,329 L 680,330 L 680,329 L 679,329 L 678,328 L 678,327 L 679,326 L 679,322 L 680,321 L 680,317 L 681,316 L 681,313 L 682,312 L 682,308 L 683,307 L 683,302 L 682,301 L 682,298 L 683,297 L 682,298 L 680,296 L 680,295 L 677,292 L 676,292 L 675,291 L 674,291 L 673,290 Z"
     fill="#3b5998"
     id="path256"
     style="fill:#ffffff;fill-opacity:1" />
  <path
     d="M 389,290 Z"
     fill="#3b5998"
     id="path258" />
  <path
     d="M 670,288 Z"
     fill="#3b5998"
     id="path260" />
  <path
     d="M 409,288 Z"
     fill="#3b5998"
     id="path262" />
  <path
     d="M 404,288 L 407,288 Z"
     fill="#3b5998"
     id="path264" />
</svg>
