<?xml version="1.0" encoding="UTF-8" standalone="no"?>
<svg viewBox="0 0 64 64" xmlns="http://www.w3.org/2000/svg">
	<defs>
		<linearGradient id="primaryGradient" x1="0%" y1="0%" x2="100%" y2="100%">
			<stop offset="0%" stop-color="#3b5998"/>
			<stop offset="100%" stop-color="#8b9dc3"/>
		</linearGradient>
		<linearGradient id="accentGradient" x1="0%" y1="0%" x2="100%" y2="100%">
			<stop offset="0%" stop-color="#1cc88a"/>
			<stop offset="100%" stop-color="#0bb36e"/>
		</linearGradient>
		<filter id="dropShadow" x="-20%" y="-20%" width="140%" height="140%">
			<feDropShadow dx="0" dy="1" stdDeviation="2" flood-color="rgba(0,0,0,0.2)"/>
		</filter>
	</defs>

	<rect x="0" y="0" width="64" height="64" rx="12" fill="white" stroke="url(#primaryGradient)" stroke-width="2"/>

	<g transform="translate(10, 10) scale(0.75)" filter="url(#dropShadow)">
		<path
		  d="M12,12 
         h18 v6 
         h-12 v8 
         h10 v6 
         h-10 v16"
		  stroke="url(#primaryGradient)"
		  stroke-width="6"
		  stroke-linecap="round"
		  stroke-linejoin="round"
		  fill="none"
    />

		<path
		  d="M16,26 
         l4,-4 
         l8,2 
         l6,-6"
		  stroke="url(#accentGradient)"
		  stroke-width="2"
		  fill="none"
		  stroke-linecap="round"
    />

		<path
		  d="M40,16 
         c-4,-3 -8,-2 -11,1 
         c-3,3 -4,8 -1,11 
         c3,3 9,5 12,8 
         c3,3 4,7 1,10 
         c-3,3 -8,3 -12,0"
		  stroke="url(#primaryGradient)"
		  stroke-width="6"
		  stroke-linecap="round"
		  stroke-linejoin="round"
		  fill="none"
    />
		<path
		  d="M36,10 
         v28"
		  stroke="url(#primaryGradient)"
		  stroke-width="3"
		  stroke-linecap="round"
		  fill="none"
    />
	</g>
</svg>