<?xml version="1.0" encoding="UTF-8" standalone="no"?>
<svg xmlns="http://www.w3.org/2000/svg" viewBox="0 0 200 200">
	<defs>
		<linearGradient id="primaryGradient" x1="0%" y1="0%" x2="100%" y2="100%">
			<stop offset="0%" stop-color="#3b5998"/>
			<stop offset="100%" stop-color="#8b9dc3"/>
		</linearGradient>
		<linearGradient id="accentGradient" x1="0%" y1="0%" x2="100%" y2="100%">
			<stop offset="0%" stop-color="#1cc88a"/>
			<stop offset="100%" stop-color="#0bb36e"/>
		</linearGradient>
		<clipPath id="circleMask">
			<circle cx="100" cy="100" r="95"/>
		</clipPath>
	</defs>

	<!-- White Background Circle -->
	<circle cx="100" cy="100" r="95" fill="white"/>

	<g clip-path="url(#circleMask)">
		<!-- Background Gradient Fill -->
		<rect x="0" y="0" width="200" height="200" fill="url(#primaryGradient)" opacity="0.1"/>

		<!-- Financial Graph Line -->
		<path
		  d="M55,125 
         L85,95 
         L125,115 
         L150,75"
		  fill="none"
		  stroke="url(#accentGradient)"
		  stroke-width="10"
		  stroke-linecap="round"
		  stroke-linejoin="round"
		  opacity="0.8"
    />

		<!-- FS Letters -->
		<!-- F Letter -->
		<path d="M60 65 H100 V75 H70 V90 H100 V100 H70 V135 H60 Z"
		  fill="url(#primaryGradient)" />

		<!-- S Letter -->
		<path d="M 107.186 116.717 C 94.383 127.877 152.283 126.722 158.395 111.137 C 163.721 97.556 108.96 99.171 107.186 88.818 C 105.412 78.465 162.717 72.107 154.564 73.651 C 146.411 75.195 107.383 80.048 107.953 87.189"
			  fill="none" stroke="url(#primaryGradient)"
			  stroke-width="10"
			  stroke-linecap="round"
			  style="transform-box: fill-box; transform-origin: 50% 50%;"
			  transform="matrix(-1, 0, 0, -1, 0.000021, -0.000007)"></path>
	</g>





	<!-- Circular Border -->
	<circle
	  cx="100"
	  cy="100"
	  r="95"
	  fill="none"
	  stroke="url(#primaryGradient)"
	  stroke-width="2"
  />
</svg>
